<svg id="Layer_1" data-name="Layer 1" xmlns="http://www.w3.org/2000/svg" viewBox="0 0 35 35"><defs><style>.cls-1{fill:#fff;}</style></defs><title>app-nav-icon</title><path class="cls-1" d="M27.43.4H12.75A5.48,5.48,0,0,0,7.28,5.87l0,20.25H4.72A2.62,2.62,0,0,0,2.1,28.74v1.05A5.22,5.22,0,0,0,7.31,35H29l-.18-.13a5.22,5.22,0,0,0,4.07-5.08l0-23.92A5.48,5.48,0,0,0,27.43.4Zm.22,32.8a3.41,3.41,0,0,1-3.41-3.41V28.74a2.7,2.7,0,0,0-2.7-2.7H9l0-20.17A3.68,3.68,0,0,1,12.75,2.2H27.43A3.68,3.68,0,0,1,31.1,5.87l0,23.92A3.41,3.41,0,0,1,27.65,33.2ZM3.9,28.74a.82.82,0,0,1,.82-.82H21.54a.82.82,0,0,1,.82.82v1.05A5.3,5.3,0,0,0,23.6,33.2H7.31A3.41,3.41,0,0,1,3.9,29.79Z"/><path class="cls-1" d="M20.27,13.28a4,4,0,0,1-1.57-.78,1.21,1.21,0,0,1-.32-.89,1.32,1.32,0,0,1,.37-1,1.59,1.59,0,0,1,1.17-.38,1.39,1.39,0,0,1,1.14.47,2,2,0,0,1,.43,1.35v.5H23l.15-.24.07-.12,0-.17a3.63,3.63,0,0,0-.75-2.43,3,3,0,0,0-1.72-1V7.17H19.1V8.6a3.14,3.14,0,0,0-1.7.87,2.94,2.94,0,0,0-.82,2.14,2.79,2.79,0,0,0,.84,2.14,5.94,5.94,0,0,0,2.28,1.19,4.31,4.31,0,0,1,1.53.8,1.15,1.15,0,0,1,.34.87,1.22,1.22,0,0,1-.42,1,1.8,1.8,0,0,1-1.26.4,2.11,2.11,0,0,1-1.35-.43A1.59,1.59,0,0,1,18,16.21v-.5H16.47l-.14.28-.05.1,0,.15a3.1,3.1,0,0,0,1,2.53,3.67,3.67,0,0,0,1.87.85V21h1.68V19.61a3.31,3.31,0,0,0,1.74-.85,2.87,2.87,0,0,0,.86-2.16,2.75,2.75,0,0,0-.84-2.12A6.2,6.2,0,0,0,20.27,13.28Z"/></svg>