<svg id="Layer_1" data-name="Layer 1" xmlns="http://www.w3.org/2000/svg" xmlns:xlink="http://www.w3.org/1999/xlink" viewBox="0 0 180 180"><defs><style>.cls-1{fill:none;}.cls-2{clip-path:url(#clip-path);}.cls-3{opacity:0.15;}.cls-4{fill:#3f51b5;}</style><clipPath id="clip-path"><rect class="cls-1" x="-148" y="-50" width="128" height="128"/></clipPath></defs><title>icon-loading-screen</title><g class="cls-2"><g class="cls-3"><path d="M27.23,71.72c-.16-.18-.33-.34-.5-.51l-.5-.5c-.17-.17-.33-.34-.51-.5s-.33-.34-.5-.5-.33-.35-.5-.51-.33-.34-.51-.5-.32-.34-.5-.5-.33-.34-.5-.51-.33-.34-.5-.5-.33-.34-.51-.5-.33-.34-.5-.5-.33-.35-.5-.51-.33-.34-.51-.5-.32-.34-.5-.5-.33-.34-.5-.51-.33-.34-.51-.5-.32-.34-.5-.5-.33-.34-.5-.5-.33-.35-.5-.51-.33-.34-.51-.5-.32-.34-.5-.5-.33-.35-.5-.51-.33-.34-.5-.5-.33-.34-.51-.5-.33-.34-.5-.5-.33-.35-.5-.51-.33-.34-.51-.5a5.9,5.9,0,0,0-.5-.5c-.16-.18-.33-.35-.5-.51s-.33-.34-.51-.5-.32-.34-.5-.5-.33-.34-.5-.5-.33-.35-.5-.51-.33-.34-.51-.5-.33-.34-.5-.5-.33-.35-.5-.51-.33-.34-.51-.5-.32-.34-.5-.5-.33-.34-.5-.51-.33-.34-.5-.5-.33-.34-.51-.5-.33-.34-.5-.5-.33-.35-.5-.51-.33-.34-.51-.5-.32-.34-.5-.5-.33-.34-.5-.51-.33-.34-.5-.5-.33-.34-.51-.5-.33-.34-.5-.5-.33-.35-.5-.51-.33-.34-.51-.5-.32-.34-.5-.5-.33-.34-.5-.51-.33-.34-.5-.5-.33-.34-.51-.5-.33-.34-.5-.5-.33-.35-.5-.51-.33-.34-.51-.5-.32-.34-.5-.5-.33-.34-.5-.51l-.5-.5c-.17-.17-.33-.34-.51-.5s-.33-.34-.5-.5-.33-.35-.5-.51-.33-.34-.51-.5-.32-.34-.5-.5-.33-.35-.5-.51-.33-.34-.5-.5-.33-.34-.51-.5-.33-.34-.5-.5-.33-.35-.5-.51-.33-.34-.51-.5-.32-.34-.5-.5-.33-.35-.5-.51-.33-.34-.51-.5-.32-.34-.5-.5-.33-.34-.5-.5-.33-.35-.5-.51-.33-.34-.51-.5a5.9,5.9,0,0,0-.5-.5c-.16-.18-.33-.35-.5-.51s-.33-.34-.5-.5-.33-.34-.51-.5-.33-.34-.5-.5-.33-.35-.5-.51-.33-.34-.51-.5a5.9,5.9,0,0,0-.5-.5c-.16-.18-.33-.35-.5-.51s-.33-.34-.51-.5-.32-.34-.5-.5-.33-.34-.5-.5-.33-.35-.5-.51-.33-.34-.51-.5-.33-.34-.5-.5-.33-.35-.5-.51-.33-.34-.51-.5-.32-.34-.5-.5-.33-.34-.5-.51-.33-.34-.5-.5-.33-.34-.51-.5-.33-.34-.5-.5-.33-.35-.5-.51-.33-.34-.51-.5-.32-.34-.5-.5-.33-.34-.5-.51-.33-.34-.5-.5-.33-.34-.51-.5-.33-.34-.5-.5-.33-.35-.5-.51-.33-.34-.51-.5-.32-.34-.5-.5-.33-.34-.5-.51l-.5-.5c-.17-.17-.33-.34-.51-.5s-.33-.34-.5-.5-.33-.35-.5-.51-.33-.34-.51-.5-.32-.34-.5-.5-.33-.35-.5-.51-.33-.34-.5-.5-.33-.34-.51-.5-.33-.34-.5-.5-.33-.35-.5-.51-.33-.34-.51-.5-.32-.34-.5-.5-.33-.35-.5-.51-.33-.34-.51-.5-.32-.34-.5-.5-.33-.34-.5-.5-.33-.35-.5-.51-.33-.34-.51-.5a5.9,5.9,0,0,0-.5-.5c-.16-.18-.33-.35-.5-.51s-.33-.34-.51-.5-.32-.34-.5-.5-.33-.34-.5-.51l-.5-.5c-.16-.17-.33-.34-.51-.5a5.9,5.9,0,0,0-.5-.5c-.16-.18-.33-.35-.5-.51s-.33-.34-.51-.5-.32-.34-.5-.5-.33-.34-.5-.5-.33-.35-.5-.51-.33-.34-.51-.5-.33-.34-.5-.5-.33-.35-.5-.51-.33-.34-.51-.5-.32-.34-.5-.5-.33-.34-.5-.51-.33-.34-.5-.5-.33-.34-.51-.5-.33-.34-.5-.5-.33-.35-.5-.51-.33-.34-.51-.5-.32-.34-.5-.5-.33-.34-.5-.51-.33-.34-.5-.5-.33-.34-.51-.5-.33-.34-.5-.5-.33-.35-.5-.51-.33-.34-.51-.5-.32-.34-.5-.5-.33-.34-.5-.51-.33-.34-.5-.5-.33-.34-.51-.5-.33-.34-.5-.5-.33-.35-.5-.51-.33-.34-.51-.5-.32-.34-.5-.5-.33-.35-.5-.51-.33-.34-.51-.5-.32-.34-.5-.5-.33-.34-.5-.5-.33-.35-.5-.51-.33-.34-.51-.5a5.9,5.9,0,0,0-.5-.5c-.16-.18-.33-.35-.5-.51s-.33-.34-.5-.5-.33-.34-.51-.5a8.44,8.44,0,0,0-6.22-2.76H-99.33a8.5,8.5,0,0,0-8.48,8.48L-107.9,35h.51v.5h.5V36h.5v.51h.5v.27h-9.77a2.68,2.68,0,0,0-2.68,2.68v2.14a7.91,7.91,0,0,0,2.59,5.86c.16.17.33.34.5.5a6,6,0,0,0,.51.5,6,6,0,0,0,.5.51c.16.17.33.34.5.5s.33.34.5.5a6.14,6.14,0,0,0,.51.51c.16.17.32.34.5.5l.5.5a6,6,0,0,0,.51.5,6,6,0,0,0,.5.51c.16.17.33.34.5.5s.33.34.5.5a6.14,6.14,0,0,0,.51.51c.16.17.32.34.5.5s.33.34.5.5a6,6,0,0,0,.51.5,6,6,0,0,0,.5.51l.5.5c.16.18.33.34.5.5a6.14,6.14,0,0,0,.51.51c.16.17.32.34.5.5s.33.34.5.5a6,6,0,0,0,.51.5,6,6,0,0,0,.5.51l.5.5c.16.18.33.34.5.5a6.14,6.14,0,0,0,.51.51c.16.17.33.34.5.5s.33.34.5.5.33.34.51.51.32.34.5.5l.5.5c.16.18.33.34.5.5a6.14,6.14,0,0,0,.51.51l.5.5.5.5a6,6,0,0,0,.51.5,6,6,0,0,0,.5.51c.16.17.33.34.5.5a6,6,0,0,0,.51.5,6,6,0,0,0,.5.51c.16.17.33.34.5.5s.33.34.5.5a6.14,6.14,0,0,0,.51.51c.16.17.32.34.5.5s.33.34.5.5a6,6,0,0,0,.51.5,6,6,0,0,0,.5.51c.16.17.33.34.5.5s.33.34.5.5a6.14,6.14,0,0,0,.51.51c.16.17.32.34.5.5s.33.34.5.5.33.34.5.5.33.35.51.51.33.34.5.5.33.34.5.5a6.14,6.14,0,0,0,.51.51c.16.17.32.34.5.5s.33.34.5.5a6,6,0,0,0,.51.5,6,6,0,0,0,.5.51l.5.5c.16.18.33.34.5.5a6.14,6.14,0,0,0,.51.51c.16.17.32.34.5.5s.33.34.5.5a6,6,0,0,0,.51.5,6,6,0,0,0,.5.51c.16.17.33.34.5.5s.33.34.5.5a6.14,6.14,0,0,0,.51.51c.16.17.32.34.5.5l.5.5a6,6,0,0,0,.51.5,6,6,0,0,0,.5.51c.16.17.33.34.5.5s.33.34.5.5a6.14,6.14,0,0,0,.51.51c.16.17.33.34.5.5s.33.34.5.5.33.34.51.51.32.34.5.5.33.34.5.5.33.34.5.5a6.14,6.14,0,0,0,.51.51c.16.17.33.34.5.5s.33.34.5.5.33.34.51.51.32.34.5.5.33.34.5.5.33.34.5.5a6.14,6.14,0,0,0,.51.51c.16.17.33.34.5.5s.33.34.5.5a6.14,6.14,0,0,0,.51.51c.16.17.32.34.5.5s.33.34.5.5a6,6,0,0,0,.51.5,6,6,0,0,0,.5.51c.16.17.33.34.5.5s.33.34.5.5a6.14,6.14,0,0,0,.51.51c.16.17.32.34.5.5s.33.34.5.5a6,6,0,0,0,.51.5,6,6,0,0,0,.5.51c.16.17.33.34.5.5s.33.34.5.5a6.14,6.14,0,0,0,.51.51c.16.17.32.34.5.5l.5.5a6,6,0,0,0,.51.5,6,6,0,0,0,.5.51c.16.17.33.34.5.5s.33.34.5.5a6.14,6.14,0,0,0,.51.51c.16.17.32.34.5.5s.33.34.5.5a6,6,0,0,0,.51.5,6,6,0,0,0,.5.51c.16.17.33.34.5.5s.33.34.5.5a6.14,6.14,0,0,0,.51.51c.16.17.32.34.5.5s.33.34.5.5a6,6,0,0,0,.51.5,6,6,0,0,0,.5.51c.16.17.33.34.5.5s.33.34.5.5a6.14,6.14,0,0,0,.51.51c.16.17.33.34.5.5s.33.34.5.5a6,6,0,0,0,.51.5,6,6,0,0,0,.5.51c.16.17.33.34.5.5s.33.34.5.5.33.35.51.51.33.34.5.5.33.34.5.5a6.14,6.14,0,0,0,.51.51c.16.17.32.34.5.5s.33.34.5.5.33.34.5.5a6.14,6.14,0,0,0,.51.51c.16.17.33.34.5.5s.33.34.5.5a6.14,6.14,0,0,0,.51.51c.16.17.32.34.5.5l.5.5c.16.18.33.34.5.5s.33.35.51.51.33.34.5.5.33.34.5.5a6.14,6.14,0,0,0,.51.51c.16.17.32.34.5.5s.33.34.5.5a6,6,0,0,0,.51.5,6,6,0,0,0,.5.51l.5.5c.16.18.33.34.5.5a6.14,6.14,0,0,0,.51.51c.16.17.32.34.5.5s.33.34.5.5a6,6,0,0,0,.51.5,6,6,0,0,0,.5.51c.16.17.33.34.5.5s.33.34.5.5a6.14,6.14,0,0,0,.51.51c.16.17.32.34.5.5l.5.5a6,6,0,0,0,.51.5,6,6,0,0,0,.5.51l.5.5c.16.18.33.34.5.5a6.14,6.14,0,0,0,.51.51c.16.17.33.34.5.5s.33.34.5.5.33.34.51.51.32.34.5.5a7.9,7.9,0,0,0,5.86,2.59h35.7c-.22-.16-.42-.33-.63-.51h.12a7.52,7.52,0,0,1-.62-.5h.12a7.52,7.52,0,0,1-.62-.5h.12c-.16-.11-.31-.25-.46-.37l-.1-.13h.06l-.16-.13a9.68,9.68,0,0,1-1.78-4.15l.19.18c.16.17.33.34.51.5a5.9,5.9,0,0,0,.5.5c.16.18.33.35.5.51s.33.34.51.5.32.34.5.5.33.34.5.5.33.35.5.51a7.94,7.94,0,0,0,13.8-5.36V87.4a7.49,7.49,0,0,0,.1-1.17V77.94A8.44,8.44,0,0,0,27.23,71.72Z"/></g></g><path class="cls-4" d="M135.72,10.33H68.14a25.24,25.24,0,0,0-25.2,25.2l-.19,93.23H31.13a12.07,12.07,0,0,0-12.06,12.06v4.86a24,24,0,0,0,24,24h99.32c10.72-2.4,18.34-12.57,18.34-24l.21-110.13A25.24,25.24,0,0,0,135.72,10.33Zm1,151a15.72,15.72,0,0,1-15.7-15.7v-4.86a12.43,12.43,0,0,0-12.42-12.42H51l.19-92.86A16.94,16.94,0,0,1,68.14,18.62h67.58a16.94,16.94,0,0,1,16.92,16.91l-.21,110.14A15.72,15.72,0,0,1,136.73,161.38ZM27.36,140.82a3.77,3.77,0,0,1,3.77-3.77h77.48a3.77,3.77,0,0,1,3.77,3.77v4.86a24.34,24.34,0,0,0,5.73,15.7h-75a15.73,15.73,0,0,1-15.7-15.7Z"/><path class="cls-4" d="M102.76,69.64c-4.55-1.5-6.44-2.78-7.23-3.59a5.59,5.59,0,0,1-1.47-4.12,6.07,6.07,0,0,1,1.72-4.49c1.14-1.15,3-1.74,5.38-1.74a6.42,6.42,0,0,1,5.23,2.15,9.27,9.27,0,0,1,2,6.23v2.31h7.1l.67-1.11.32-.54.11-.79c0-4.63-1.13-8.4-3.48-11.21a13.51,13.51,0,0,0-7.92-4.6V41.51h-7.8v6.6a14.45,14.45,0,0,0-7.83,4A13.56,13.56,0,0,0,85.74,62c0,4.17,1.29,7.49,3.86,9.87,2.35,2.19,5.78,4,10.48,5.47,4.23,1.52,6.16,2.85,7,3.69a5.29,5.29,0,0,1,1.55,4,5.59,5.59,0,0,1-1.94,4.45,8.31,8.31,0,0,1-5.78,1.84,9.74,9.74,0,0,1-6.21-2c-1.52-1.19-2.26-3.21-2.26-6.2v-2.3H85.25l-.64,1.27-.24.47-.1.71c-.1,5.08,1.38,9,4.39,11.63a16.94,16.94,0,0,0,8.6,3.93V105H105V98.78a15.36,15.36,0,0,0,8-3.91,13.22,13.22,0,0,0,4-10c0-4.13-1.29-7.41-3.85-9.76C110.83,73,107.42,71.2,102.76,69.64Z"/></svg>